<svg width="220" height="218" viewBox="0 0 220 218" fill="none" xmlns="http://www.w3.org/2000/svg">
<path d="M137.032 15.389C139.051 11.8925 137.865 7.38052 134.168 5.75784C123.312 0.992701 111.333 -0.799387 99.4742 0.635632C85.1869 2.36459 71.8469 8.68464 61.4596 18.6456C51.0724 28.6067 44.1993 41.6703 41.8735 55.8727C39.5478 70.0751 41.8952 84.6487 48.5627 97.4025C55.2303 110.156 65.8577 120.401 78.8473 126.597C91.8369 132.793 106.487 134.604 120.594 131.76C134.702 128.915 147.505 121.568 157.079 110.823C165.025 101.904 170.39 91.0449 172.673 79.4105C173.45 75.4486 170.422 71.8998 166.399 71.562C162.376 71.2242 158.892 74.2322 157.992 78.168C156.053 86.6474 152.001 94.5436 146.162 101.097C138.695 109.478 128.708 115.209 117.704 117.427C106.7 119.646 95.2736 118.233 85.1417 113.4C75.0098 108.568 66.7204 100.577 61.5198 90.6287C56.3191 80.6807 54.4881 69.3133 56.3022 58.2355C58.1163 47.1576 63.4773 36.968 71.5794 29.1984C79.6814 21.4288 90.0866 16.4992 101.231 15.1506C109.944 14.0962 118.74 15.2754 126.81 18.5225C130.555 20.0297 135.014 18.8855 137.032 15.389Z" fill="url(#paint0_linear_12524_65249)"/>
<circle cx="170.427" cy="57.3223" r="8.57527" fill="#CBB26A"/>
<rect x="62.3828" y="53.8135" width="16.2963" height="51.9444" rx="8.14815" transform="rotate(-30 62.3828 53.8135)" fill="url(#paint1_linear_12524_65249)"/>
<rect x="97.7031" y="53.8135" width="16.2963" height="51.9444" rx="8.14815" transform="rotate(-30 97.7031 53.8135)" fill="url(#paint2_linear_12524_65249)"/>
<rect width="16.2963" height="51.9444" rx="8.14815" transform="matrix(-0.866025 -0.5 -0.5 0.866025 120.086 53.8135)" fill="url(#paint3_linear_12524_65249)"/>
<rect width="16.2963" height="51.9444" rx="8.14815" transform="matrix(-0.866025 -0.5 -0.5 0.866025 155.562 53.8135)" fill="url(#paint4_linear_12524_65249)"/>
<path d="M0 180.391C0 185.648 4.18968 187.592 5.41769 187.953V188.169C4.69533 188.601 1.08354 190.689 1.08354 195.01C1.08354 199.619 5.12875 204.876 15.8197 204.876C26.2939 204.876 31.6393 199.259 31.6393 192.634C31.6393 186.296 26.2939 182.551 19.7204 182.551H10.4742C8.88501 182.551 7.58477 181.615 7.58477 180.103C7.58477 178.374 9.24619 177.366 10.2575 177.366C11.4133 177.366 13.2914 177.942 16.0364 177.942C23.6211 177.942 28.3887 172.325 28.3887 166.636C28.3887 161.522 25.4993 159.29 25.4993 159.29L29.5445 157.994C30.0501 157.85 30.3391 157.273 30.3391 156.769V154.393C30.3391 153.601 29.7612 153.025 28.9666 153.025H15.8197C8.66831 153.025 3.25061 158.858 3.25061 165.555C3.25061 169.876 5.41769 172.325 5.41769 172.325C5.41769 172.325 0 174.773 0 180.391ZM10.9799 165.915C10.9799 162.891 13.1469 160.73 16.0364 160.73C18.998 160.73 21.0206 162.891 21.0206 165.915C21.0206 168.94 18.998 171.101 16.0364 171.101C13.1469 171.101 10.9799 168.94 10.9799 165.915ZM9.39066 193.426C9.39066 191.193 11.63 190.185 12.4968 189.897C14.0138 189.681 15.6029 189.609 17.1921 189.609C21.4541 189.609 22.4654 191.841 22.4654 193.138C22.4654 195.874 19.7926 197.675 15.7474 197.675C11.8467 197.675 9.39066 195.946 9.39066 193.426Z" fill="url(#paint5_linear_12524_65249)"/>
<path d="M34.2336 168.148C34.2336 176.43 40.3736 183.271 49.042 183.271C53.7373 183.271 57.4213 181.543 59.8051 179.311C60.5275 178.734 60.383 177.942 59.8773 177.438L56.9157 174.053C56.41 173.477 55.7599 173.621 55.0375 174.053C53.7373 174.99 51.6424 175.854 49.4031 175.854C45.2134 175.854 42.6852 172.541 42.4685 169.588H60.9609C61.611 169.588 62.2611 169.084 62.3334 168.364C62.4056 167.86 62.4778 166.924 62.4778 166.42C62.4778 158.642 56.41 153.025 48.9697 153.025C40.3736 153.025 34.2336 160.01 34.2336 168.148ZM43.1186 164.547C43.4798 161.811 45.8636 159.65 48.753 159.65C51.498 159.65 53.8095 161.883 54.0262 164.547H43.1186Z" fill="url(#paint6_linear_12524_65249)"/>
<path d="M68.5682 181.183C68.5682 181.903 69.2183 182.551 69.9407 182.551H75.2861C76.6586 182.551 77.092 182.191 77.092 181.183V165.339C77.8144 163.395 80.1259 160.802 83.8822 160.802C87.3495 160.802 89.2999 163.179 89.2999 166.924V181.183C89.2999 181.903 89.8778 182.551 90.6724 182.551H96.5957C97.3181 182.551 97.9682 181.903 97.9682 181.183V167.356C97.9682 159.866 94.2842 153.025 85.1102 153.025C79.5481 153.025 76.0085 156.121 74.925 157.273L73.9137 154.609C73.697 154.105 73.3358 153.745 72.6857 153.745H69.9407C69.2183 153.745 68.5682 154.321 68.5682 155.113V181.183Z" fill="url(#paint7_linear_12524_65249)"/>
<path d="M111.669 182.479C111.814 182.911 112.247 183.271 112.897 183.271H113.259C113.836 183.271 114.198 182.983 114.414 182.623L123.444 165.843H123.516L132.618 182.623C132.834 182.983 133.196 183.271 133.773 183.271H134.062C134.785 183.271 135.218 182.911 135.363 182.479L144.392 155.401C144.753 154.465 144.103 153.745 143.092 153.745H138.397C137.602 153.745 137.024 153.817 136.735 154.609L132.401 167.5H132.329L125.033 153.673C124.816 153.313 124.527 153.025 123.877 153.025H123.299C122.649 153.025 122.288 153.385 122.144 153.673L114.775 167.5H114.703L110.369 154.609C110.225 154.105 109.502 153.745 109.069 153.745H103.868C102.857 153.745 102.206 154.465 102.64 155.401L111.669 182.479Z" fill="url(#paint8_linear_12524_65249)"/>
<path d="M154.448 143.518C157.265 143.518 159.505 141.286 159.505 138.549C159.505 135.813 157.265 133.58 154.448 133.58C151.703 133.58 149.536 135.813 149.536 138.549C149.536 141.286 151.703 143.518 154.448 143.518ZM150.186 181.183C150.186 181.903 150.836 182.551 151.559 182.551H157.554C158.277 182.551 158.927 181.903 158.927 181.183V155.113C158.927 154.321 158.277 153.745 157.554 153.745H151.559C150.836 153.745 150.186 154.321 150.186 155.113V181.183Z" fill="url(#paint9_linear_12524_65249)"/>
<path d="M166.455 180.607C167.972 181.759 171.294 183.271 176.062 183.271C183.358 183.271 187.547 179.239 187.547 174.485C187.547 168.868 183.358 166.492 177.796 164.331C175.123 163.251 173.823 162.819 173.823 161.522C173.823 160.586 174.545 159.866 176.279 159.866C179.024 159.866 182.274 161.378 182.274 161.378C182.852 161.594 183.647 161.522 184.008 160.874L185.814 157.201C186.175 156.481 185.814 155.689 185.164 155.257C183.647 154.249 180.541 153.025 176.279 153.025C168.911 153.025 165.66 157.129 165.66 161.522C165.66 165.915 168.26 168.868 173.823 171.029C177.651 172.541 178.662 173.333 178.662 174.629C178.662 175.854 177.651 176.43 176.206 176.43C172.884 176.43 169.633 174.701 169.633 174.701C168.983 174.341 168.26 174.485 167.972 175.206L166.021 179.094C165.732 179.671 166.021 180.247 166.455 180.607Z" fill="url(#paint10_linear_12524_65249)"/>
<path d="M191.756 168.148C191.756 176.43 197.896 183.271 206.564 183.271C211.259 183.271 214.943 181.543 217.327 179.311C218.05 178.734 217.905 177.942 217.4 177.438L214.438 174.053C213.932 173.477 213.282 173.621 212.56 174.053C211.259 174.99 209.165 175.854 206.925 175.854C202.736 175.854 200.207 172.541 199.991 169.588H218.483C219.133 169.588 219.783 169.084 219.856 168.364C219.928 167.86 220 166.924 220 166.42C220 158.642 213.932 153.025 206.492 153.025C197.896 153.025 191.756 160.01 191.756 168.148ZM200.641 164.547C201.002 161.811 203.386 159.65 206.275 159.65C209.02 159.65 211.332 161.883 211.548 164.547H200.641Z" fill="url(#paint11_linear_12524_65249)"/>
<rect y="209.225" width="50.9259" height="2.03704" fill="url(#paint12_linear_12524_65249)"/>
<path d="M57.0391 211.213C57.0391 212.425 57.8233 213.166 58.9641 213.166C59.8481 213.166 60.3757 212.738 60.7037 212.439L60.8748 212.824C60.9461 212.981 61.0174 213.023 61.1172 213.023H61.6305C61.7731 213.023 61.9015 212.895 61.9015 212.753V209.658C61.9015 208.104 61.488 207.177 59.7055 207.177C58.793 207.177 57.8804 207.405 57.7663 207.448C57.638 207.491 57.5239 207.591 57.5667 207.805L57.695 208.546C57.7235 208.731 57.8233 208.86 58.023 208.803C58.3509 208.703 59.0924 208.589 59.62 208.589C60.1476 208.589 60.3757 208.846 60.3615 209.573C60.3615 209.573 59.8909 209.416 59.3205 209.416C57.8661 209.416 57.0391 210.2 57.0391 211.213ZM58.6076 211.213C58.6076 210.756 58.9783 210.443 59.5344 210.443C59.948 210.443 60.333 210.614 60.333 210.614V211.398C60.2474 211.569 59.8054 211.954 59.3491 211.954C58.907 211.954 58.6076 211.64 58.6076 211.213Z" fill="white"/>
<path d="M63.1243 211.213C63.1243 212.425 63.9086 213.166 65.0493 213.166C65.9334 213.166 66.461 212.738 66.7889 212.439L66.9601 212.824C67.0313 212.981 67.1026 213.023 67.2025 213.023H67.7158C67.8584 213.023 67.9867 212.895 67.9867 212.753V209.658C67.9867 208.104 67.5732 207.177 65.7908 207.177C64.8782 207.177 63.9656 207.405 63.8515 207.448C63.7232 207.491 63.6091 207.591 63.6519 207.805L63.7802 208.546C63.8088 208.731 63.9086 208.86 64.1082 208.803C64.4362 208.703 65.1776 208.589 65.7052 208.589C66.2328 208.589 66.461 208.846 66.4467 209.573C66.4467 209.573 65.9762 209.416 65.4058 209.416C63.9513 209.416 63.1243 210.2 63.1243 211.213ZM64.6928 211.213C64.6928 210.756 65.0636 210.443 65.6197 210.443C66.0332 210.443 66.4182 210.614 66.4182 210.614V211.398C66.3326 211.569 65.8906 211.954 65.4343 211.954C64.9923 211.954 64.6928 211.64 64.6928 211.213Z" fill="white"/>
<path d="M71.377 212.852C71.5766 212.966 72.0899 213.166 72.646 213.166C74.186 213.166 75.4694 211.854 75.4694 210.172C75.4694 208.532 74.2859 207.177 72.7173 207.177C71.7905 207.177 71.0918 207.676 70.8779 207.961L70.6925 207.491C70.6497 207.377 70.5499 207.32 70.4501 207.32H69.894C69.7514 207.32 69.6231 207.434 69.6231 207.591V217.03C69.6231 217.173 69.7514 217.301 69.894 217.301H71.0347C71.2914 217.301 71.377 217.201 71.377 217.03V212.852ZM71.3057 211.298V209.587C71.3912 209.288 71.7477 208.717 72.4749 208.717C73.2592 208.717 73.801 209.373 73.801 210.172C73.801 210.97 73.2164 211.626 72.4179 211.626C71.7049 211.626 71.3057 211.298 71.3057 211.298Z" fill="white"/>
<path d="M76.7527 212.753C76.7527 212.895 76.881 213.023 77.0236 213.023H78.2357C78.3783 213.023 78.5066 212.895 78.5066 212.753V210.343L80.7596 212.909C80.8023 212.966 80.9164 213.023 81.002 213.023H82.542C82.7844 213.023 82.8699 212.781 82.7273 212.624L80.1892 209.901L82.3138 207.733C82.4564 207.576 82.3709 207.32 82.1285 207.32H80.8309C80.674 207.32 80.5742 207.405 80.4744 207.491L78.5066 209.487V203.313C78.5066 203.17 78.3783 203.042 78.2357 203.042H77.0236C76.881 203.042 76.7527 203.17 76.7527 203.313V212.753Z" fill="white"/>
<path d="M83.2599 211.213C83.2599 212.425 84.0442 213.166 85.1849 213.166C86.069 213.166 86.5966 212.738 86.9246 212.439L87.0957 212.824C87.167 212.981 87.2383 213.023 87.3381 213.023H87.8514C87.994 213.023 88.1224 212.895 88.1224 212.753V209.658C88.1224 208.104 87.7088 207.177 85.9264 207.177C85.0138 207.177 84.1012 207.405 83.9872 207.448C83.8588 207.491 83.7448 207.591 83.7875 207.805L83.9159 208.546C83.9444 208.731 84.0442 208.86 84.2438 208.803C84.5718 208.703 85.3133 208.589 85.8409 208.589C86.3685 208.589 86.5966 208.846 86.5824 209.573C86.5824 209.573 86.1118 209.416 85.5414 209.416C84.087 209.416 83.2599 210.2 83.2599 211.213ZM84.8285 211.213C84.8285 210.756 85.1992 210.443 85.7553 210.443C86.1688 210.443 86.5538 210.614 86.5538 210.614V211.398C86.4683 211.569 86.0262 211.954 85.5699 211.954C85.1279 211.954 84.8285 211.64 84.8285 211.213Z" fill="white"/>
<path d="M92.478 210.172C92.478 211.811 93.6615 213.166 95.2158 213.166C96.4136 213.166 97.0837 212.311 97.0837 212.311L97.2263 212.753C97.2691 212.909 97.3689 213.023 97.4973 213.023H98.0534C98.196 213.023 98.3243 212.895 98.3243 212.753V203.313C98.3243 203.17 98.196 203.042 98.0534 203.042H96.8413C96.6987 203.042 96.5704 203.17 96.5704 203.313V207.434C96.3137 207.334 95.8717 207.177 95.3013 207.177C93.6045 207.177 92.478 208.503 92.478 210.172ZM94.1321 210.172C94.1321 209.373 94.7167 208.717 95.5152 208.717C96.2282 208.717 96.6274 209.045 96.6274 209.045V210.699C96.5276 211.041 96.1854 211.626 95.4297 211.626C94.6739 211.626 94.1321 210.97 94.1321 210.172Z" fill="white"/>
<path d="M100.877 205.295C101.433 205.295 101.875 204.853 101.875 204.311C101.875 203.769 101.433 203.327 100.877 203.327C100.335 203.327 99.9071 203.769 99.9071 204.311C99.9071 204.853 100.335 205.295 100.877 205.295ZM100.035 212.753C100.035 212.895 100.164 213.023 100.306 213.023H101.49C101.632 213.023 101.761 212.895 101.761 212.753V207.591C101.761 207.434 101.632 207.32 101.49 207.32H100.306C100.164 207.32 100.035 207.434 100.035 207.591V212.753Z" fill="white"/>
<path d="M102.876 212.596C102.876 213.637 103.703 214.022 103.945 214.093V214.136C103.803 214.221 103.09 214.635 103.09 215.49C103.09 216.403 103.888 217.444 105.999 217.444C108.066 217.444 109.122 216.332 109.122 215.02C109.122 213.765 108.066 213.023 106.769 213.023H104.944C104.63 213.023 104.373 212.838 104.373 212.539C104.373 212.196 104.701 211.997 104.901 211.997C105.129 211.997 105.5 212.111 106.042 212.111C107.539 212.111 108.48 210.999 108.48 209.872C108.48 208.86 107.91 208.418 107.91 208.418L108.708 208.161C108.808 208.133 108.865 208.018 108.865 207.919V207.448C108.865 207.291 108.751 207.177 108.594 207.177H105.999C104.587 207.177 103.518 208.332 103.518 209.658C103.518 210.514 103.945 210.999 103.945 210.999C103.945 210.999 102.876 211.483 102.876 212.596ZM105.043 209.73C105.043 209.131 105.471 208.703 106.042 208.703C106.626 208.703 107.025 209.131 107.025 209.73C107.025 210.328 106.626 210.756 106.042 210.756C105.471 210.756 105.043 210.328 105.043 209.73ZM104.73 215.177C104.73 214.735 105.172 214.535 105.343 214.478C105.642 214.435 105.956 214.421 106.27 214.421C107.111 214.421 107.311 214.863 107.311 215.12C107.311 215.661 106.783 216.018 105.985 216.018C105.215 216.018 104.73 215.676 104.73 215.177Z" fill="white"/>
<path d="M110.903 205.295C111.459 205.295 111.901 204.853 111.901 204.311C111.901 203.769 111.459 203.327 110.903 203.327C110.361 203.327 109.933 203.769 109.933 204.311C109.933 204.853 110.361 205.295 110.903 205.295ZM110.061 212.753C110.061 212.895 110.19 213.023 110.332 213.023H111.516C111.658 213.023 111.787 212.895 111.787 212.753V207.591C111.787 207.434 111.658 207.32 111.516 207.32H110.332C110.19 207.32 110.061 207.434 110.061 207.591V212.753Z" fill="white"/>
<path d="M113.8 211.327C113.8 212.482 114.285 213.166 115.383 213.166C116.082 213.166 117.009 212.838 117.08 212.795C117.223 212.738 117.294 212.596 117.237 212.453L116.952 211.555C116.909 211.412 116.795 211.341 116.638 211.398C116.481 211.455 116.182 211.555 115.939 211.555C115.711 211.555 115.497 211.498 115.497 211.098V208.817H116.752C116.909 208.817 117.023 208.689 117.023 208.546V207.591C117.023 207.434 116.909 207.32 116.752 207.32H115.497V205.723C115.497 205.58 115.383 205.452 115.241 205.452L114.071 205.466C113.929 205.466 113.8 205.594 113.8 205.737V207.32H113.316C113.173 207.32 113.059 207.434 113.059 207.591V208.546C113.059 208.689 113.173 208.817 113.316 208.817H113.8V211.327Z" fill="white"/>
<path d="M118.003 211.213C118.003 212.425 118.787 213.166 119.928 213.166C120.812 213.166 121.34 212.738 121.668 212.439L121.839 212.824C121.91 212.981 121.981 213.023 122.081 213.023H122.594C122.737 213.023 122.865 212.895 122.865 212.753V209.658C122.865 208.104 122.452 207.177 120.669 207.177C119.757 207.177 118.844 207.405 118.73 207.448C118.602 207.491 118.488 207.591 118.531 207.805L118.659 208.546C118.687 208.731 118.787 208.86 118.987 208.803C119.315 208.703 120.056 208.589 120.584 208.589C121.111 208.589 121.34 208.846 121.325 209.573C121.325 209.573 120.855 209.416 120.284 209.416C118.83 209.416 118.003 210.2 118.003 211.213ZM119.571 211.213C119.571 210.756 119.942 210.443 120.498 210.443C120.912 210.443 121.297 210.614 121.297 210.614V211.398C121.211 211.569 120.769 211.954 120.313 211.954C119.871 211.954 119.571 211.64 119.571 211.213Z" fill="white"/>
<path d="M124.502 212.753C124.502 212.895 124.63 213.023 124.773 213.023H125.97C126.113 213.023 126.241 212.895 126.241 212.753V203.313C126.241 203.17 126.113 203.042 125.97 203.042H124.773C124.63 203.042 124.502 203.17 124.502 203.313V212.753Z" fill="white"/>
<path d="M130.874 212.638C131.174 212.867 131.829 213.166 132.771 213.166C134.211 213.166 135.038 212.368 135.038 211.426C135.038 210.314 134.211 209.844 133.113 209.416C132.585 209.202 132.329 209.116 132.329 208.86C132.329 208.674 132.471 208.532 132.813 208.532C133.355 208.532 133.997 208.831 133.997 208.831C134.111 208.874 134.268 208.86 134.339 208.731L134.696 208.004C134.767 207.862 134.696 207.705 134.567 207.619C134.268 207.42 133.655 207.177 132.813 207.177C131.359 207.177 130.717 207.99 130.717 208.86C130.717 209.73 131.231 210.314 132.329 210.742C133.084 211.041 133.284 211.198 133.284 211.455C133.284 211.697 133.084 211.811 132.799 211.811C132.143 211.811 131.501 211.469 131.501 211.469C131.373 211.398 131.231 211.426 131.174 211.569L130.789 212.339C130.731 212.453 130.789 212.567 130.874 212.638Z" fill="white"/>
<path d="M135.883 211.213C135.883 212.425 136.667 213.166 137.808 213.166C138.692 213.166 139.219 212.738 139.547 212.439L139.718 212.824C139.79 212.981 139.861 213.023 139.961 213.023H140.474C140.617 213.023 140.745 212.895 140.745 212.753V209.658C140.745 208.104 140.332 207.177 138.549 207.177C137.637 207.177 136.724 207.405 136.61 207.448C136.482 207.491 136.368 207.591 136.41 207.805L136.539 208.546C136.567 208.731 136.667 208.86 136.867 208.803C137.195 208.703 137.936 208.589 138.464 208.589C138.991 208.589 139.219 208.846 139.205 209.573C139.205 209.573 138.735 209.416 138.164 209.416C136.71 209.416 135.883 210.2 135.883 211.213ZM137.451 211.213C137.451 210.756 137.822 210.443 138.378 210.443C138.792 210.443 139.177 210.614 139.177 210.614V211.398C139.091 211.569 138.649 211.954 138.193 211.954C137.751 211.954 137.451 211.64 137.451 211.213Z" fill="white"/>
<path d="M141.968 211.213C141.968 212.425 142.752 213.166 143.893 213.166C144.777 213.166 145.305 212.738 145.633 212.439L145.804 212.824C145.875 212.981 145.946 213.023 146.046 213.023H146.559C146.702 213.023 146.83 212.895 146.83 212.753V209.658C146.83 208.104 146.417 207.177 144.634 207.177C143.722 207.177 142.809 207.405 142.695 207.448C142.567 207.491 142.453 207.591 142.496 207.805L142.624 208.546C142.652 208.731 142.752 208.86 142.952 208.803C143.28 208.703 144.021 208.589 144.549 208.589C145.077 208.589 145.305 208.846 145.29 209.573C145.29 209.573 144.82 209.416 144.249 209.416C142.795 209.416 141.968 210.2 141.968 211.213ZM143.537 211.213C143.537 210.756 143.907 210.443 144.463 210.443C144.877 210.443 145.262 210.614 145.262 210.614V211.398C145.176 211.569 144.734 211.954 144.278 211.954C143.836 211.954 143.537 211.64 143.537 211.213Z" fill="white"/>
<path d="M148.766 211.327C148.766 212.482 149.251 213.166 150.349 213.166C151.048 213.166 151.975 212.838 152.046 212.795C152.188 212.738 152.26 212.596 152.203 212.453L151.917 211.555C151.875 211.412 151.761 211.341 151.604 211.398C151.447 211.455 151.147 211.555 150.905 211.555C150.677 211.555 150.463 211.498 150.463 211.098V208.817H151.718C151.875 208.817 151.989 208.689 151.989 208.546V207.591C151.989 207.434 151.875 207.32 151.718 207.32H150.463V205.723C150.463 205.58 150.349 205.452 150.206 205.452L149.037 205.466C148.895 205.466 148.766 205.594 148.766 205.737V207.32H148.281C148.139 207.32 148.025 207.434 148.025 207.591V208.546C148.025 208.689 148.139 208.817 148.281 208.817H148.766V211.327Z" fill="white"/>
<path d="M153.382 212.753C153.382 212.895 153.511 213.023 153.653 213.023H154.837C155.051 213.023 155.136 212.909 155.136 212.753V209.73C155.279 209.145 155.721 208.717 156.377 208.717C157.061 208.717 157.503 209.216 157.503 210.001V212.753C157.503 212.895 157.617 213.023 157.774 213.023H158.929C159.072 213.023 159.2 212.895 159.2 212.753V210.015C159.2 208.575 158.459 207.177 156.648 207.177C155.977 207.177 155.421 207.434 155.136 207.648V203.313C155.136 203.17 155.008 203.042 154.865 203.042H153.653C153.511 203.042 153.382 203.17 153.382 203.313V212.753Z" fill="white"/>
<path d="M161.632 205.295C162.188 205.295 162.63 204.853 162.63 204.311C162.63 203.769 162.188 203.327 161.632 203.327C161.09 203.327 160.662 203.769 160.662 204.311C160.662 204.853 161.09 205.295 161.632 205.295ZM160.79 212.753C160.79 212.895 160.919 213.023 161.061 213.023H162.245C162.387 213.023 162.516 212.895 162.516 212.753V207.591C162.516 207.434 162.387 207.32 162.245 207.32H161.061C160.919 207.32 160.79 207.434 160.79 207.591V212.753Z" fill="white"/>
<rect x="168.742" y="209.225" width="50.9259" height="2.03704" fill="url(#paint13_linear_12524_65249)"/>
<defs>
<linearGradient id="paint0_linear_12524_65249" x1="67.9907" y1="120.594" x2="140.146" y2="10.5991" gradientUnits="userSpaceOnUse">
<stop stop-color="#CBB26A"/>
<stop offset="0.526042" stop-color="#FBF4A1"/>
<stop offset="0.983871" stop-color="#CBB26A"/>
</linearGradient>
<linearGradient id="paint1_linear_12524_65249" x1="61.7038" y1="79.7857" x2="79.6254" y2="80.0639" gradientUnits="userSpaceOnUse">
<stop stop-color="#CBB26A"/>
<stop offset="0.526042" stop-color="#FBF4A1"/>
<stop offset="0.983871" stop-color="#CBB26A"/>
</linearGradient>
<linearGradient id="paint2_linear_12524_65249" x1="97.0241" y1="79.7857" x2="114.946" y2="80.0639" gradientUnits="userSpaceOnUse">
<stop stop-color="#CBB26A"/>
<stop offset="0.526042" stop-color="#FBF4A1"/>
<stop offset="0.983871" stop-color="#CBB26A"/>
</linearGradient>
<linearGradient id="paint3_linear_12524_65249" x1="-0.679012" y1="25.9722" x2="17.2426" y2="26.2504" gradientUnits="userSpaceOnUse">
<stop stop-color="#CBB26A"/>
<stop offset="0.526042" stop-color="#FBF4A1"/>
<stop offset="0.983871" stop-color="#CBB26A"/>
</linearGradient>
<linearGradient id="paint4_linear_12524_65249" x1="-0.679012" y1="25.9722" x2="17.2426" y2="26.2504" gradientUnits="userSpaceOnUse">
<stop stop-color="#CBB26A"/>
<stop offset="0.526042" stop-color="#FBF4A1"/>
<stop offset="0.983871" stop-color="#CBB26A"/>
</linearGradient>
<linearGradient id="paint5_linear_12524_65249" x1="-9.16667" y1="169.228" x2="227.322" y2="205.331" gradientUnits="userSpaceOnUse">
<stop stop-color="#CBB26A"/>
<stop offset="0.526042" stop-color="#FBF4A1"/>
<stop offset="0.983871" stop-color="#CBB26A"/>
</linearGradient>
<linearGradient id="paint6_linear_12524_65249" x1="-9.16667" y1="169.228" x2="227.322" y2="205.331" gradientUnits="userSpaceOnUse">
<stop stop-color="#CBB26A"/>
<stop offset="0.526042" stop-color="#FBF4A1"/>
<stop offset="0.983871" stop-color="#CBB26A"/>
</linearGradient>
<linearGradient id="paint7_linear_12524_65249" x1="-9.16667" y1="169.228" x2="227.322" y2="205.331" gradientUnits="userSpaceOnUse">
<stop stop-color="#CBB26A"/>
<stop offset="0.526042" stop-color="#FBF4A1"/>
<stop offset="0.983871" stop-color="#CBB26A"/>
</linearGradient>
<linearGradient id="paint8_linear_12524_65249" x1="-9.16667" y1="169.228" x2="227.322" y2="205.331" gradientUnits="userSpaceOnUse">
<stop stop-color="#CBB26A"/>
<stop offset="0.526042" stop-color="#FBF4A1"/>
<stop offset="0.983871" stop-color="#CBB26A"/>
</linearGradient>
<linearGradient id="paint9_linear_12524_65249" x1="-9.16667" y1="169.228" x2="227.322" y2="205.331" gradientUnits="userSpaceOnUse">
<stop stop-color="#CBB26A"/>
<stop offset="0.526042" stop-color="#FBF4A1"/>
<stop offset="0.983871" stop-color="#CBB26A"/>
</linearGradient>
<linearGradient id="paint10_linear_12524_65249" x1="-9.16667" y1="169.228" x2="227.322" y2="205.331" gradientUnits="userSpaceOnUse">
<stop stop-color="#CBB26A"/>
<stop offset="0.526042" stop-color="#FBF4A1"/>
<stop offset="0.983871" stop-color="#CBB26A"/>
</linearGradient>
<linearGradient id="paint11_linear_12524_65249" x1="-9.16667" y1="169.228" x2="227.322" y2="205.331" gradientUnits="userSpaceOnUse">
<stop stop-color="#CBB26A"/>
<stop offset="0.526042" stop-color="#FBF4A1"/>
<stop offset="0.983871" stop-color="#CBB26A"/>
</linearGradient>
<linearGradient id="paint12_linear_12524_65249" x1="-2.12191" y1="210.243" x2="20.0213" y2="237.631" gradientUnits="userSpaceOnUse">
<stop stop-color="#CBB26A"/>
<stop offset="0.526042" stop-color="#FBF4A1"/>
<stop offset="0.983871" stop-color="#CBB26A"/>
</linearGradient>
<linearGradient id="paint13_linear_12524_65249" x1="166.62" y1="210.243" x2="188.764" y2="237.631" gradientUnits="userSpaceOnUse">
<stop stop-color="#CBB26A"/>
<stop offset="0.526042" stop-color="#FBF4A1"/>
<stop offset="0.983871" stop-color="#CBB26A"/>
</linearGradient>
</defs>
</svg>
